<?xml version="1.0" encoding="iso-8859-1"?>
<!-- Generator: Adobe Illustrator 19.0.0, SVG Export Plug-In . SVG Version: 6.00 Build 0)  -->
<svg version="1.1" id="Capa_1" xmlns="http://www.w3.org/2000/svg" xmlns:xlink="http://www.w3.org/1999/xlink" x="0px" y="0px"
	 viewBox="0 0 423.84 423.84" style="enable-background:new 0 0 423.84 423.84;" xml:space="preserve">
<g>
	<g>
		<path d="M415.84,177.682h-10.96c1.12-3.2,2.08-6.48,2.96-9.84c8.023-31.952,0.979-65.818-19.12-91.92
			c-20.619-27.851-52.809-44.785-87.44-46c-37.395-1.297-72.189,19.075-89.36,52.32c-17.127-33.287-51.95-53.676-89.36-52.32
			c-34.632,1.215-66.821,18.149-87.44,46C15.071,101.985,8.029,135.781,16,167.682c2.072,7.536,4.747,14.893,8,22H8
			c-4.418,0-8,3.582-8,8s3.582,8,8,8l-0.16,0.08h24c18.32,32,46.72,58.08,76.4,85.68c12.8,11.84,26,24,38.32,36.8
			c33.28,34.32,59.04,62.8,59.28,63.12c2.972,3.27,8.031,3.511,11.301,0.539c0.188-0.171,0.368-0.351,0.539-0.539
			c0,0,26-28.8,59.28-63.12c12.32-12.72,25.52-24.96,38.32-36.8c33.36-30.96,65.2-60.56,82.88-97.76h17.68c4.418,0,8-3.582,8-8
			S420.258,177.682,415.84,177.682z M304.64,279.602v0.08c-12.72,12.24-26.32,24.4-38.96,37.36c-24,24.8-44.24,46.56-53.76,57.04
			c-9.52-10.4-29.68-32-53.76-57.04c-12.64-12.96-26.24-25.12-38.96-37.44c-26.08-24-51.12-47.52-68.48-73.92h86.32l22.4,46.24
			c1.922,3.978,6.705,5.646,10.683,3.724c2.131-1.029,3.697-2.95,4.277-5.244l24-92.96l44.88,140.8c1.086,3.466,4.371,5.766,8,5.6
			c3.58-0.156,6.619-2.672,7.44-6.16l19.76-85.92l14.4,33.92c1.252,2.956,4.15,4.877,7.36,4.88c3.191,0.011,6.084-1.875,7.36-4.8
			l22.56-51.84h50.4C363.28,225.122,334.64,251.922,304.64,279.602z M392.32,163.922c-1.206,4.64-2.675,9.207-4.4,13.68h-63.28
			c-3.191-0.011-6.084,1.875-7.36,4.8l-17.36,39.6l-16.72-39.52c-1.698-4.079-6.381-6.01-10.46-4.312
			c-2.411,1.004-4.181,3.121-4.74,5.672l-18.56,81.52l-44.48-139.52c-1.362-4.203-5.873-6.506-10.076-5.144
			c-2.609,0.845-4.603,2.968-5.284,5.624l-25.68,98.8l-15.12-31.04c-1.346-2.747-4.141-4.486-7.2-4.48H41.04
			c-4.059-8.205-7.25-16.812-9.52-25.68l0,0c-6.701-27.141-0.663-55.856,16.4-78c17.643-24.117,45.34-38.85,75.2-40h3.44
			c58.24,0,77.04,55.2,77.76,57.6c1.38,4.197,5.901,6.482,10.098,5.102c2.415-0.794,4.308-2.687,5.102-5.102
			c0-0.56,20.08-59.76,81.2-57.52c29.86,1.15,57.557,15.883,75.2,40C392.959,108.127,398.995,136.807,392.32,163.922z"/>
	</g>
</g>
<g>
</g>
<g>
</g>
<g>
</g>
<g>
</g>
<g>
</g>
<g>
</g>
<g>
</g>
<g>
</g>
<g>
</g>
<g>
</g>
<g>
</g>
<g>
</g>
<g>
</g>
<g>
</g>
<g>
</g>
</svg>
